<?xml version="1.0" encoding="UTF-8" standalone="no"?>
<svg
   xmlns:dc="http://purl.org/dc/elements/1.1/"
   xmlns:cc="http://creativecommons.org/ns#"
   xmlns:rdf="http://www.w3.org/1999/02/22-rdf-syntax-ns#"
   xmlns:svg="http://www.w3.org/2000/svg"
   xmlns="http://www.w3.org/2000/svg"
   xmlns:sodipodi="http://sodipodi.sourceforge.net/DTD/sodipodi-0.dtd"
   xmlns:inkscape="http://www.inkscape.org/namespaces/inkscape"
   sodipodi:docname="logo78-4.svg"
   inkscape:version="1.0 (4035a4fb49, 2020-05-01)"
   id="svg8"
   version="1.1"
   viewBox="0 0 233.60014 233.60014"
   height="233.60013mm"
   width="233.60013mm">
  <defs
     id="defs2" />
  <sodipodi:namedview
     inkscape:document-rotation="0"
     inkscape:window-maximized="1"
     inkscape:window-y="0"
     inkscape:window-x="0"
     inkscape:window-height="1011"
     inkscape:window-width="1920"
     fit-margin-bottom="0.8"
     fit-margin-right="0.8"
     fit-margin-top="0.8"
     fit-margin-left="0.8"
     inkscape:guide-bbox="true"
     showguides="true"
     showgrid="false"
     inkscape:current-layer="layer1"
     inkscape:document-units="mm"
     inkscape:cy="441.44906"
     inkscape:cx="441.44906"
     inkscape:zoom="0.92196368"
     inkscape:pageshadow="2"
     inkscape:pageopacity="0.0"
     borderopacity="1.0"
     bordercolor="#666666"
     pagecolor="#ffffff"
     id="base" />
  <metadata
     id="metadata5">
    <rdf:RDF>
      <cc:Work
         rdf:about="">
        <dc:format>image/svg+xml</dc:format>
        <dc:type
           rdf:resource="http://purl.org/dc/dcmitype/StillImage" />
        <dc:title />
      </cc:Work>
    </rdf:RDF>
  </metadata>
  <g
     style="display:inline"
     transform="translate(-21.405402,0.87657859)"
     id="layer1"
     inkscape:groupmode="layer"
     inkscape:label="Ebene 1">
    <path
       inkscape:connector-curvature="0"
       id="rect8"
       transform="matrix(0.26458333,0,0,0.26458333,26.205587,3.9236061)"
       d="M 423.30664,-14.601562 -14.601562,423.30664 423.30664,861.21484 861.21484,423.30664 Z m 5.35938,137.058592 c 31.92393,0 63.8495,5.35276 95.77343,16.06055 32.39343,10.70779 63.84776,27.04506 94.36328,49.00976 30.98499,21.96468 56.10139,53.26564 75.34961,93.90039 19.24827,40.36011 28.8711,86.89603 28.8711,139.61133 0,54.63719 -10.09212,102.54861 -30.2793,143.73242 -20.18717,40.90927 -46.47771,72.07074 -78.87109,93.48633 -31.92393,21.41556 -64.3188,37.06508 -97.18164,46.94922 -32.86288,9.60953 -65.02018,14.41406 -96.47461,14.41406 -33.80183,0 -66.89955,-4.94206 -99.29297,-14.82617 -31.92393,-10.15865 -63.14464,-25.94378 -93.66016,-47.35937 -30.04604,-21.41556 -54.45754,-52.44142 -73.23633,-93.07617 -18.77878,-40.9092 -28.16992,-88.68313 -28.16992,-143.32032 0,-94.44831 30.75145,-167.75375 92.25196,-219.91992 61.50052,-52.44073 131.68576,-78.66211 210.55664,-78.66211 z m -8.44922,32.94727 c -28.63763,0 -54.69251,7.8228 -78.16602,23.47265 -23.00398,15.3753 -41.31312,35.41862 -54.92773,60.12891 -12.83314,24.12373 -22.97564,49.95485 -30.43946,77.48047 33.86001,-4.01537 66.98776,-9.67465 99.36524,-17.02149 8.00628,0 12.93366,3.07358 14.78125,9.22461 2.25815,8.61143 3.79796,19.50869 4.61914,32.68946 13.75434,-9.31438 31.00015,-18.62894 51.73437,-27.94336 20.93949,-9.49013 38.08002,-14.32426 51.42383,-14.5 26.89285,-0.35154 47.72894,6.41511 62.50977,20.29883 14.98609,13.708 22.48047,35.85216 22.48047,66.43164 v 153.42382 c 0,20.28941 0.69496,38.22004 2.07226,53.84571 22.60214,-41.62061 34.91081,-88.62125 37.13672,-140.89453 0.18516,-1.68783 0.36054,-3.37953 0.52344,-5.07227 0.60004,-8.78332 0.90058,-17.60425 0.90039,-26.43164 1.9e-4,-6.24854 -0.15032,-12.49562 -0.45117,-18.72852 -0.31147,-4.91591 -0.71667,-9.81843 -1.21485,-14.70117 C 599.17263,326.4654 581.70153,273.60099 549.79102,228.71094 515.05024,179.83948 471.85845,155.40431 420.2168,155.4043 Z M 252.66797,333.8457 c -2.03339,10.05891 -3.61295,20.15386 -4.77149,30.28125 -0.22732,1.26732 -0.44762,2.53847 -0.6621,3.81055 -1.19398,8.65123 -2.09348,17.383 -2.69336,26.16602 -0.60058,8.78324 -0.9019,17.60612 -0.90235,26.43359 4.8e-4,6.24854 0.15167,12.49566 0.45313,18.72851 0.42468,8.80551 1.14871,17.57418 2.16992,26.27344 0.58584,4.33444 1.24568,8.64566 1.97851,12.93164 5.91362,49.45841 22.03755,94.07103 48.74024,133.66211 33.80183,49.42054 77.22729,74.13086 130.27734,74.13086 19.477,0 37.49289,-3.32585 54.0586,-9.95117 0.21365,-36.10431 0.42708,-72.20819 0.64062,-108.3125 -0.1697,-8.96719 -0.27148,-18.51135 -0.27148,-28.91016 V 394.89258 c 0,-17.92581 -2.56505,-31.45888 -7.69727,-40.59766 -4.92692,-9.31438 -13.9611,-13.9707 -27.09961,-13.9707 -22.78711,0 -46.49616,7.55779 -71.13086,22.67187 v 2.63477 c 0,33.21555 0.10141,83.2155 0.30664,149.99805 0,10.01733 -2.25904,17.30957 -6.77539,21.8789 -4.31108,4.56934 -13.13669,6.85547 -26.48047,6.85547 -18.06546,0 -30.79318,-1.40689 -38.18359,-4.21875 -7.18515,-2.63614 -10.7793,-7.64416 -10.7793,-15.02539 V 372.2207 c 0,-15.1141 -2.46367,-24.7802 -7.39062,-28.99804 -4.72165,-4.39359 -15.90766,-7.29328 -33.5625,-8.69922 -0.0827,-0.23018 -0.1463,-0.44983 -0.22461,-0.67774 z"
       style="fill:#000b78;fill-opacity:1;stroke:#000000;stroke-width:0.731497;stroke-opacity:1" />
    <path
       transform="matrix(0.26458333,0,0,0.26458333,21.405402,-0.87657859)"
       id="path834"
       d="m 404.02893,735.28676 c -54.42094,-6.05879 -100.19879,-22.67721 -147.51123,-53.54997 -34.22135,-22.33043 -57.01915,-48.09583 -77.48049,-87.56616 -16.6682,-32.15327 -26.51668,-65.795 -31.69015,-108.25127 -2.69224,-22.09405 -2.68564,-70.48443 0.0125,-91.6522 8.55748,-67.13602 31.86022,-117.42632 73.88934,-159.46267 39.35702,-39.36378 91.32109,-69.40996 143.19062,-82.79434 23.75929,-6.13084 40.04242,-8.5862 65.16662,-9.82662 68.06207,-3.3603 131.56152,14.70973 192.97804,54.91574 40.81524,26.71948 65.06429,54.63065 87.50734,100.72278 21.74315,44.65469 31.41132,93.85387 29.82285,151.76182 -1.47873,53.90751 -11.01773,94.86569 -31.57607,135.58018 -14.55406,28.8234 -28.59555,48.20665 -49.16352,67.86662 -35.09913,33.54967 -95.29604,64.09199 -149.39331,75.79824 -25.87424,5.59898 -36.74355,6.75059 -67.24777,7.12491 -16.10692,0.19765 -33.43407,-0.1025 -38.50477,-0.66706 z m 72.12866,-32.94619 c 4.17587,-0.93765 11.37517,-2.95554 15.99846,-4.48419 l 8.40597,-2.77937 -0.0379,-147.69332 c -0.0405,-157.9236 0.0205,-156.00684 -5.41378,-170.36976 -3.17164,-8.38279 -9.65,-14.90579 -17.34077,-17.46025 -8.12135,-2.69749 -28.13299,-1.72417 -41.74377,2.03029 -11.80056,3.25513 -25.71453,8.99426 -35.25084,14.54001 l -7.05017,4.09996 -0.54232,82.40419 c -0.59853,90.94403 -0.2748,86.92673 -7.49432,93.00156 -5.58694,4.70108 -10.8421,5.68127 -29.92581,5.58171 -21.9789,-0.11465 -32.53792,-2.18464 -38.36127,-7.5203 l -3.93974,-3.60983 -0.58668,-87.66882 c -0.61821,-92.37959 -0.57113,-91.56022 -5.69989,-99.18516 -3.14979,-4.68279 -11.81605,-8.23961 -23.86223,-9.79357 -4.89406,-0.63133 -9.76352,-1.59693 -10.82102,-2.14577 -2.25929,-1.17256 -2.42543,-0.82715 -3.97839,8.27068 -4.71841,27.64236 -7.64489,58.17305 -7.65248,79.8348 -0.009,25.44291 4.63682,65.05763 10.7986,92.08087 14.47336,63.47467 49.56385,120.92786 90.93133,148.88066 16.21549,10.95712 38.94793,19.94522 58.25026,23.03138 12.54321,2.00548 44.41092,1.40302 55.31672,-1.04577 z M 590.63161,599.4363 c 18.52935,-38.73566 27.00216,-72.76104 30.86522,-123.94966 3.22103,-42.68129 0.90627,-84.95966 -6.64405,-121.35121 -11.4998,-55.4276 -37.21691,-104.16914 -73.29467,-138.91513 -29.8596,-28.75738 -62.80273,-42.16358 -103.36297,-42.06355 -25.95591,0.064 -43.653,4.30602 -65.62081,15.72935 -20.7324,10.78091 -42.39546,29.81133 -56.67801,49.79015 -8.63801,12.08305 -21.20275,36.52455 -28.80515,56.03308 -5.84018,14.98644 -13.56141,39.37957 -12.72858,40.2124 1.29125,1.29125 46.1998,-5.54255 78.31184,-11.91683 25.35758,-5.0335 29.2259,-4.99322 33.18728,0.34566 2.58064,3.47802 4.80937,13.54156 5.80438,26.20888 0.41147,5.2384 1.12241,9.75568 1.57987,10.0384 0.45746,0.28272 4.71056,-1.89168 9.45135,-4.832 11.07535,-6.86914 40.12896,-21.3895 53.39441,-26.68533 23.65004,-9.44158 40.35456,-11.87195 60.4365,-8.79301 19.68427,3.01796 33.2373,9.67239 44.73681,21.9654 7.94282,8.4909 12.35123,16.90364 16.08445,30.69455 l 2.81221,10.38865 0.77254,109.54879 c 0.69222,98.16088 1.22243,120.93752 2.81531,120.93752 0.26332,0 3.36026,-6.02376 6.88207,-13.38611 z"
       style="fill:#e5e4e2;fill-opacity:1;stroke-width:1.61928" />
  </g>
</svg>
