<?xml version="1.0" encoding="UTF-8" standalone="no"?>
<!-- Created with Inkscape (http://www.inkscape.org/) -->

<svg
   width="100mm"
   height="100mm"
   viewBox="0 0 100 100"
   version="1.1"
   id="svg1"
   xml:space="preserve"
   inkscape:version="1.4.2 (ebf0e940d0, 2025-05-08)"
   sodipodi:docname="logo-quadrat.svg"
   xmlns:inkscape="http://www.inkscape.org/namespaces/inkscape"
   xmlns:sodipodi="http://sodipodi.sourceforge.net/DTD/sodipodi-0.dtd"
   xmlns="http://www.w3.org/2000/svg"
   xmlns:svg="http://www.w3.org/2000/svg"><sodipodi:namedview
     id="namedview1"
     pagecolor="#ffffff"
     bordercolor="#000000"
     borderopacity="0.25"
     inkscape:showpageshadow="2"
     inkscape:pageopacity="0.0"
     inkscape:pagecheckerboard="0"
     inkscape:deskcolor="#d1d1d1"
     inkscape:document-units="mm"
     inkscape:clip-to-page="false"
     inkscape:zoom="1.0627876"
     inkscape:cx="392.83484"
     inkscape:cy="279.92423"
     inkscape:window-width="2291"
     inkscape:window-height="1444"
     inkscape:window-x="0"
     inkscape:window-y="0"
     inkscape:window-maximized="1"
     inkscape:current-layer="layer1" /><defs
     id="defs1" /><g
     inkscape:label="Ebene 1"
     inkscape:groupmode="layer"
     id="layer1"
     transform="translate(-1.0029965,-74.460513)"><path
       style="fill:#0b5b9e;fill-opacity:1;stroke-width:0.994486"
       d="m 24.217332,149.90699 c -2.238884,-0.44867 -4.612853,-1.42263 -6.503385,-2.66811 -2.568459,-1.69211 -5.084545,-5.4255 -5.804377,-8.61259 -0.328081,-1.45259 -0.356358,-1.77349 -0.350771,-3.9807 0.01606,-6.34462 2.264927,-11.3268 6.839804,-15.15303 2.716151,-2.27167 5.255048,-3.58168 8.808907,-4.54519 1.59958,-0.43368 3.811161,-0.89074 4.710455,-0.9735 0.556751,-0.0512 0.717196,-0.17066 0.392022,-0.2918 -0.395605,-0.14738 -1.466065,-0.9797 -1.909397,-1.48463 -0.230326,-0.26233 -0.536859,-0.73217 -0.681185,-1.04409 -0.250983,-0.54243 -0.265606,-0.81683 -0.335732,-6.29977 -0.04864,-3.80322 -0.12178,-5.881829 -0.217301,-6.175904 -0.238316,-0.733686 -1.301356,-1.486285 -1.818864,-1.287697 -0.2135,0.08192 -0.374875,-0.152467 -0.185534,-0.269486 0.07656,-0.04731 1.661662,-0.08959 3.52247,-0.09396 2.960416,-0.007 3.387937,0.0162 3.420476,0.185161 0.02665,0.138378 -0.101918,0.215344 -0.453676,0.271592 -0.661074,0.10571 -1.197084,0.722214 -1.389925,1.598655 -0.102228,0.464613 -0.131916,2.130429 -0.09953,5.584699 0.04383,4.67516 0.05995,4.96386 0.320659,5.74349 0.314421,0.94025 0.685232,1.53557 1.188962,1.9088 0.485106,0.35943 1.986111,0.42295 3.291518,0.13928 1.329318,-0.28886 3.168494,-0.91724 3.416015,-1.16712 0.612201,-0.61805 0.898374,-3.91535 0.780442,-8.99228 -0.08632,-3.715917 -0.13948,-4.015312 -0.78018,-4.393783 -0.193644,-0.114389 -0.587948,-0.245697 -0.876231,-0.291795 -0.390104,-0.06238 -0.514307,-0.135275 -0.485655,-0.285035 0.03336,-0.174371 0.387512,-0.212367 2.654114,-0.284754 1.438588,-0.04594 2.713756,-0.05618 2.833705,-0.02275 0.379772,0.105832 0.236776,0.262124 -0.315615,0.344959 -0.738247,0.110708 -1.251643,0.455412 -1.525125,1.024001 -0.212009,0.440784 -0.233502,0.87676 -0.251079,5.093087 -0.01518,3.64045 -0.06265,4.87115 -0.225564,5.84681 -0.113489,0.67968 -0.189367,1.25275 -0.16862,1.2735 0.02074,0.0208 0.707756,-0.003 1.526685,-0.0519 0.81893,-0.0493 2.180913,-0.0616 3.02663,-0.0273 1.059869,0.043 1.573788,0.0186 1.653913,-0.0783 0.141557,-0.17122 0.131974,-9.21369 -0.0115,-10.850726 -0.12345,-1.408565 -0.374615,-1.841004 -1.197028,-2.060967 -0.302444,-0.08089 -0.549898,-0.213323 -0.549898,-0.294293 0,-0.206178 0.580823,-0.282587 2.263364,-0.297755 l 1.453319,-0.0131 0.865548,1.033774 c 0.476051,0.568577 1.311516,1.622616 1.856587,2.342317 1.902947,2.51258 2.72562,3.57071 4.860924,6.25212 1.970215,2.47411 2.383094,2.95082 2.44816,2.82665 0.01257,-0.024 -0.0052,-2.50335 -0.03945,-5.50966 l -0.06232,-5.466023 -0.436178,-0.367005 c -0.239891,-0.20185 -0.675242,-0.431795 -0.96744,-0.510985 -1.060725,-0.287472 -0.497606,-0.402291 2.141741,-0.436693 2.048005,-0.02669 2.575872,-7.35e-4 2.534132,0.124623 -0.029,0.08709 -0.160235,0.175003 -0.29164,0.19537 -0.542521,0.08408 -1.145544,0.44206 -1.370288,0.813455 -0.227703,0.376288 -0.242537,0.784737 -0.301786,8.309278 -0.04655,5.91155 -0.0991,7.91353 -0.207732,7.91353 -0.151678,0 -1.3202,-1.33541 -2.284714,-2.61102 -0.501245,-0.66292 -4.054032,-5.16325 -4.341403,-5.49928 -0.512102,-0.59881 -2.801816,-3.5308 -3.760276,-4.81505 -0.650476,-0.87158 -1.238763,-1.586663 -1.307305,-1.589076 -0.08224,-0.0029 -0.09839,1.532076 -0.04749,4.513326 0.04243,2.48474 0.08448,5.11081 0.09346,5.83571 l 0.01633,1.318 0.83638,0.42671 c 1.025591,0.52325 1.506962,1.19893 1.617555,2.27048 0.135911,1.31685 -0.753364,3.03299 -1.880223,3.6285 -0.589107,0.31132 -0.689551,0.18444 -0.258325,-0.32632 1.3316,-1.57718 1.218669,-3.91793 -0.206175,-4.27343 -0.293357,-0.0732 -0.354745,-0.0242 -0.597186,0.47662 -0.815868,1.68536 -3.455499,2.95035 -6.156441,2.95035 -1.378728,0 -4.030934,-0.48359 -5.089421,-0.92798 -0.279642,-0.11741 -1.157526,1.31203 -2.598133,4.23047 -1.23273,2.49732 -2.073185,4.85253 -2.51264,7.04118 -0.241243,1.20148 -0.288019,1.82599 -0.289359,3.8633 -0.0017,2.61947 0.09982,3.21235 0.734075,4.28605 0.993889,1.68249 2.874034,2.34051 4.498463,1.57437 1.553758,-0.73279 3.22863,-2.26729 4.424246,-4.0534 0.367054,-0.54834 0.761246,-1.06445 0.87598,-1.14691 0.148094,-0.10644 0.229839,-0.41373 0.281798,-1.05929 0.2187,-2.71719 1.75897,-5.829 3.837903,-7.75374 2.20385,-2.04037 5.353015,-2.43547 7.949426,-0.99734 0.299938,0.16613 0.563844,0.30206 0.586459,0.30206 0.02261,0 0.270386,-0.39256 0.550601,-0.87236 0.280216,-0.4798 0.57711,-0.87857 0.659764,-0.88615 0.637523,-0.0585 1.617511,0.30395 2.006662,0.7422 0.234278,0.26384 0.228641,0.28313 -0.661777,2.26439 -1.544049,3.43566 -2.269156,5.60088 -2.686281,8.02146 -0.220272,1.27824 -0.247985,2.6036 -0.06172,2.95166 0.180984,0.33817 0.780422,0.30835 1.615706,-0.0804 2.083468,-0.96957 3.839361,-3.12542 5.453376,-6.69555 0.776449,-1.71746 1.683484,-4.34586 1.6268,-4.71411 -0.02765,-0.17962 -0.227546,-0.31962 -0.68611,-0.4805 -1.322796,-0.46413 -2.034891,-1.36387 -2.029548,-2.56438 0.0092,-2.08197 2.226372,-3.27753 3.464002,-1.86795 0.465313,0.52997 0.682557,1.47369 0.569428,2.47363 l -0.08357,0.7386 0.360368,-0.0695 c 0.198202,-0.0382 0.668808,-0.10619 1.04579,-0.15104 0.376982,-0.0449 1.20903,-0.18775 1.848994,-0.31756 1.958457,-0.39722 2.568259,-0.32543 2.870522,0.33797 0.166904,0.36631 0.02056,0.87187 -0.691029,2.38709 -1.867701,3.97708 -2.895547,6.96254 -2.991813,8.68994 -0.07578,1.35982 0.02639,1.55371 0.868765,1.64866 1.069716,0.12057 2.580086,-0.88821 3.783263,-2.52686 l 0.595091,-0.81046 0.02063,-1.52351 c 0.02605,-1.92443 0.329937,-3.201 1.165966,-4.89818 1.194645,-2.42516 3.592806,-4.48654 5.926797,-5.09446 0.921316,-0.23998 1.225356,-0.24029 2.027452,-0.002 1.180041,0.35043 1.777091,1.08968 1.790556,2.21701 0.02515,2.10583 -1.680491,4.64171 -4.117982,6.1224 -0.976184,0.593 -1.830903,0.91779 -2.940493,1.11737 l -0.872357,0.1569 0.01594,0.87455 c 0.02868,1.57377 0.869903,2.88238 2.247428,3.49612 0.363387,0.16191 0.822702,0.21224 1.911482,0.20944 1.227854,-0.003 1.584902,-0.0536 2.492447,-0.35244 3.48672,-1.148 6.242271,-3.42357 8.728317,-7.20797 0.749409,-1.1408 2.139424,-1.63895 2.98618,-1.07019 0.761382,0.51144 1.238349,1.94712 0.921334,2.77325 -0.09162,0.23875 -0.298222,0.26149 -0.298222,0.0328 0,-0.5027 -0.441968,-1.54881 -0.809715,-1.91655 -0.721421,-0.72142 -1.382168,-0.46134 -2.278701,0.89695 -1.992647,3.01895 -4.370077,5.34121 -6.636629,6.48264 -1.147981,0.57811 -3.278726,1.27032 -4.641582,1.50791 -2.028205,0.35356 -3.944608,0.0419 -5.371875,-0.87383 -0.685897,-0.44003 -1.497724,-1.27184 -1.722261,-1.76465 -0.139625,-0.30644 -0.348143,-0.41363 -0.348143,-0.17896 0,0.24617 -0.91345,1.44337 -1.669479,2.18808 -1.063992,1.04806 -1.93912,1.45601 -3.273768,1.52606 -1.120199,0.0588 -1.833423,-0.11998 -2.467073,-0.61842 -1.563355,-1.22974 -1.002942,-4.91268 1.567601,-10.30204 0.473729,-0.9932 0.836384,-1.83077 0.805902,-1.86125 -0.03048,-0.0304 -0.550011,0.007 -1.154506,0.0824 -0.604495,0.0758 -1.257098,0.15134 -1.450228,0.1679 -0.336771,0.0289 -0.376608,0.10666 -0.97313,1.89947 -0.761236,2.28787 -2.412684,5.70885 -3.470068,7.18826 -1.475327,2.06416 -3.425029,3.80409 -4.883938,4.35842 -1.511745,0.57442 -3.096632,0.0308 -3.689196,-1.2653 -0.231791,-0.50702 -0.261174,-2.46137 -0.05049,-3.3581 0.186346,-0.79315 0.05777,-0.8526 -0.388092,-0.17946 -0.213339,0.32208 -0.86587,1.08788 -1.450067,1.70177 -2.183202,2.29418 -3.952444,3.05011 -5.446221,2.32699 -0.6496,-0.31446 -1.3641,-1.08516 -1.690838,-1.8238 l -0.244641,-0.55305 -0.405774,0.67386 c -1.169486,1.94213 -3.626514,3.85565 -5.766502,4.49094 -0.355003,0.10538 -1.093513,0.23069 -1.641134,0.27846 -2.629299,0.22935 -4.979056,-1.46551 -6.166994,-4.44824 -0.561439,-1.40969 -0.747658,-2.41125 -0.749655,-4.03197 -0.0021,-1.6974 0.331219,-3.3158 1.084693,-5.2668 1.186976,-3.07347 2.539198,-5.09982 5.086395,-7.62214 l 1.519798,-1.50496 -0.614668,0.001 c -2.519766,0.004 -6.463619,1.05387 -9.601047,2.55537 -1.73999,0.83273 -3.896309,2.29154 -4.947556,3.34716 -2.308723,2.31833 -4.295399,6.04415 -5.147694,9.654 -0.423909,1.79543 -0.54678,5.13428 -0.251314,6.8291 0.538508,3.08893 1.695687,5.37548 3.785456,7.47996 0.873538,0.87969 1.218581,1.12783 2.305513,1.65806 2.196868,1.07168 4.417038,1.46039 7.135482,1.24933 3.974748,-0.3086 6.299832,-1.12811 11.171406,-3.93757 3.413119,-1.96834 4.213991,-2.4118 5.709601,-3.16153 4.261935,-2.13645 8.980018,-3.51951 14.523816,-4.25751 2.795491,-0.37214 8.450371,-0.40537 11.714497,-0.0688 7.106219,0.73265 11.861072,1.81673 15.471755,3.52747 1.258295,0.59619 3.657771,2.14444 3.657771,2.36018 0,0.33805 -0.237375,0.28806 -1.012441,-0.21319 -1.591592,-1.02932 -3.74431,-2.01366 -5.545112,-2.5355 -2.690487,-0.77969 -4.609332,-1.13512 -8.418369,-1.55935 -5.816475,-0.6478 -10.515049,-0.44306 -16.179657,0.70502 -4.441033,0.90011 -7.39532,1.9802 -13.583832,4.96629 -7.15887,3.45432 -12.48894,5.40148 -16.35858,5.97607 -1.763203,0.26181 -4.442045,0.23784 -5.892027,-0.0527 z m 24.031932,-16.40916 c 1.914724,-0.99014 3.835738,-3.56507 6.018044,-8.06659 1.070576,-2.20832 1.074929,-2.27419 0.18873,-2.85598 -2.290322,-1.50361 -4.947145,-0.0619 -6.843064,3.7134 -2.016103,4.0146 -2.14091,7.41504 -0.272155,7.41504 0.280689,0 0.689489,-0.0927 0.908445,-0.20587 z m 29.561187,-6.55944 c 2.826111,-0.95976 4.76131,-3.10412 4.895494,-5.42461 0.07045,-1.21821 -0.135467,-1.55258 -0.949187,-1.54135 -1.53151,0.0211 -3.60993,1.98356 -4.691869,4.43002 -0.26091,0.58998 -0.93684,2.68432 -0.93684,2.90277 0,0.0942 0.907363,-0.10363 1.682402,-0.36683 z m -13.169382,-6.50803 c 0.07229,-0.8861 -0.09682,-1.56984 -0.484048,-1.95707 -0.29964,-0.29964 -0.401832,-0.33731 -0.611147,-0.22529 -0.314726,0.16844 -0.62779,0.76007 -0.62779,1.18642 0,0.51179 0.338312,1.03435 0.843461,1.30282 0.654286,0.34772 0.831154,0.28601 0.879524,-0.30688 z M 44.874728,115.7432 c 1.96837,-0.41448 3.313507,-1.79337 3.026085,-3.102 -0.150637,-0.68585 -0.540467,-0.80839 -2.554475,-0.803 -1.31148,0.004 -2.029164,0.0643 -2.617068,0.22183 -0.96617,0.25882 -2.188017,0.81237 -2.834462,1.28414 -0.648427,0.47321 -1.776579,1.56815 -1.776497,1.7242 7.2e-5,0.13671 2.062161,0.64771 3.307606,0.81966 0.872577,0.12047 2.516841,0.0514 3.448811,-0.14483 z m 44.08942,-1.65722 c -1.354047,-0.36983 -1.863627,-0.59434 -2.885602,-1.27134 -1.561857,-1.03464 -2.632724,-2.47238 -3.250148,-4.36365 -0.374473,-1.14706 -0.402347,-3.95786 -0.05398,-5.44336 0.761024,-3.245154 3.30607,-5.781205 6.486129,-6.463207 0.816976,-0.175211 3.094605,-0.05927 3.787604,0.192806 1.377284,0.50098 2.606078,1.272728 3.591478,2.255642 0.798164,0.796149 1.560051,2.312259 2.005775,3.991369 0.721994,2.71986 0.324401,6.02101 -0.95539,7.93245 -1.837147,2.74387 -5.462454,4.06061 -8.725863,3.16929 z m 3.863584,-1.0872 c 1.392164,-0.63799 2.357915,-2.00702 2.879141,-4.08139 0.232671,-0.92599 0.256391,-1.30412 0.20717,-3.3025 -0.06317,-2.56466 -0.257801,-3.63269 -0.910892,-4.99848 -1.012994,-2.118439 -2.817949,-3.223066 -4.886643,-2.990613 -2.107102,0.23677 -3.733444,1.909824 -4.404017,4.530513 -0.487883,1.90671 -0.426783,5.06254 0.130908,6.76135 0.687945,2.09559 2.164617,3.76634 3.806172,4.30642 0.795357,0.26167 2.357127,0.15096 3.178161,-0.2253 z m -89.8238554,0.86487 c 0.024741,-0.0742 0.3258952,-0.22513 0.6692321,-0.33534 0.7269563,-0.23337 1.0469549,-0.44845 1.3406592,-0.90112 0.1795776,-0.27678 0.2334957,-0.92605 0.3518712,-4.23717 0.076889,-2.15067 0.1452132,-5.22819 0.1518331,-6.83894 0.010722,-2.608808 -0.012684,-2.973934 -0.2143301,-3.343472 -0.2413956,-0.442383 -0.8411022,-0.76779 -1.4208768,-0.770981 -0.4476051,-0.0025 -0.6724448,-0.14738 -0.5460255,-0.351932 0.072519,-0.117338 0.7140018,-0.177358 2.3924012,-0.223847 3.0109532,-0.0834 2.7995284,-0.215261 3.8462357,2.398885 0.6923233,1.729077 1.4458243,3.536877 3.3704163,8.086297 0.650131,1.5368 1.257741,2.83401 1.303818,2.78357 0.08707,-0.0953 1.500644,-3.25301 1.999248,-4.46598 0.29584,-0.71969 0.830245,-2.00953 1.187567,-2.86631 0.357321,-0.85678 0.997298,-2.41612 1.42217,-3.465197 0.424873,-1.049075 0.863018,-2.013133 0.973658,-2.14235 0.185539,-0.216695 0.387241,-0.233095 2.597219,-0.211173 2.46257,0.02442 3.001483,0.143966 1.93498,0.429213 -0.752776,0.201336 -1.289947,0.685261 -1.462145,1.31721 -0.179174,0.657553 -0.06875,11.204767 0.130559,12.470917 0.177599,1.12822 0.537222,1.75343 1.190466,2.06966 0.283191,0.13709 0.623367,0.25011 0.755947,0.25116 0.272953,0.002 0.639954,0.20154 0.54527,0.29622 -0.03434,0.0343 -1.743155,0.0719 -3.797372,0.0835 -3.22521,0.0182 -3.740041,-0.004 -3.772327,-0.16519 -0.02697,-0.13436 0.120374,-0.20989 0.529053,-0.27117 0.63191,-0.0948 1.209283,-0.51254 1.537925,-1.11283 0.193525,-0.35349 0.210329,-0.86481 0.178693,-5.43739 -0.0192,-2.77597 -0.079,-5.41174 -0.132879,-5.85726 l -0.09796,-0.81005 -0.739774,1.49547 c -0.406875,0.82251 -0.846571,1.74783 -0.977099,2.05627 -0.130528,0.30844 -0.725215,1.62633 -1.321528,2.92863 -0.596311,1.30231 -1.376665,3.04079 -1.734117,3.8633 -1.314606,3.02495 -1.466777,3.3025 -1.810674,3.3025 -0.251162,0 -0.376534,-0.1261 -0.637616,-0.64132 -0.44775,-0.88359 -2.147763,-4.62218 -3.1821137,-6.99795 -0.4714758,-1.08291 -1.0226206,-2.31668 -1.2247663,-2.74169 -0.2021457,-0.42502 -0.6115443,-1.3297 -0.9097746,-2.01041 -0.2982302,-0.68071 -0.6014766,-1.2574 -0.6738807,-1.28153 -0.1598195,-0.0533 -0.3563374,9.37165 -0.2284215,10.955 0.1357923,1.68085 0.69102,2.46866 1.7398447,2.46866 0.2120212,0 0.3152736,0.057 0.2823385,0.15578 -0.039139,0.11742 -0.7340576,0.16163 -2.8223159,0.17956 -1.9425142,0.0167 -2.7569497,-0.0165 -2.7254089,-0.11116 z m 64.2759884,-0.0996 c -1.809053,-0.0517 -2.18089,-0.0936 -2.18089,-0.2458 0,-0.11992 0.192325,-0.21632 0.555203,-0.27826 1.035888,-0.17684 1.053802,-0.22866 1.144833,-3.31132 0.04398,-1.48902 0.0848,-4.58599 0.09073,-6.88216 0.0099,-3.848679 -0.0078,-4.215595 -0.225932,-4.696241 -0.247662,-0.545496 -0.759803,-0.907939 -1.346685,-0.953048 -0.415861,-0.03196 -0.500493,-0.278035 -0.129778,-0.37734 0.406626,-0.108925 4.700659,-0.0853 6.765856,0.03722 2.018635,0.119762 2.996075,0.342416 4.29947,0.979387 1.164564,0.569124 2.630169,1.976962 3.205595,3.079252 0.909554,1.74234 1.263984,4.34217 0.851011,6.24235 -0.268368,1.23483 -1.008686,2.79974 -1.691404,3.57534 -0.58925,0.66943 -1.774779,1.54099 -2.614447,1.92205 -1.292299,0.58648 -4.156079,1.07592 -5.857249,1.00104 -0.376982,-0.0166 -1.666823,-0.0582 -2.866313,-0.0925 z m 6.110493,-1.12295 c 1.348358,-0.45423 2.313107,-1.26401 3.145769,-2.64044 0.793125,-1.31108 0.901541,-1.84542 0.892631,-4.39939 -0.0071,-2.02946 -0.03765,-2.34013 -0.320817,-3.26032 -0.402389,-1.30762 -1.001417,-2.2962 -1.814419,-2.994365 -0.915234,-0.785955 -1.667808,-1.036275 -3.589565,-1.193957 -1.900763,-0.155959 -2.494222,-0.08364 -2.601635,0.31707 -0.0971,0.362225 -0.07777,8.689132 0.02736,11.783902 0.101386,2.98472 -0.02405,2.81646 2.027814,2.72007 0.993841,-0.0467 1.693632,-0.15092 2.232867,-0.33257 z"
       id="path1" /></g></svg>
