<?xml version="1.0" encoding="UTF-8" standalone="no"?>
<!-- Created with Inkscape (http://www.inkscape.org/) -->

<svg
   width="100mm"
   height="58mm"
   viewBox="0 0 100 58"
   version="1.1"
   id="svg1"
   xml:space="preserve"
   inkscape:version="1.4.2 (ebf0e940d0, 2025-05-08)"
   sodipodi:docname="logo.svg"
   xmlns:inkscape="http://www.inkscape.org/namespaces/inkscape"
   xmlns:sodipodi="http://sodipodi.sourceforge.net/DTD/sodipodi-0.dtd"
   xmlns="http://www.w3.org/2000/svg"
   xmlns:svg="http://www.w3.org/2000/svg"><sodipodi:namedview
     id="namedview1"
     pagecolor="#ffffff"
     bordercolor="#000000"
     borderopacity="0.25"
     inkscape:showpageshadow="2"
     inkscape:pageopacity="0.0"
     inkscape:pagecheckerboard="0"
     inkscape:deskcolor="#d1d1d1"
     inkscape:document-units="mm"
     inkscape:clip-to-page="false"
     inkscape:zoom="1.0627876"
     inkscape:cx="392.83484"
     inkscape:cy="279.92423"
     inkscape:window-width="2291"
     inkscape:window-height="1444"
     inkscape:window-x="0"
     inkscape:window-y="0"
     inkscape:window-maximized="1"
     inkscape:current-layer="layer1" /><defs
     id="defs1" /><g
     inkscape:label="Ebene 1"
     inkscape:groupmode="layer"
     id="layer1"
     transform="translate(-1.0029965,-74.460513)"><path
       style="fill:#0b5b9e;fill-opacity:1;stroke-width:0.994486"
       d="m 24.217332,129.90699 c -2.238884,-0.44867 -4.612853,-1.42263 -6.503385,-2.66811 -2.568459,-1.69211 -5.084545,-5.4255 -5.804377,-8.61259 -0.328081,-1.45259 -0.356358,-1.77349 -0.350771,-3.9807 0.01606,-6.34462 2.264927,-11.3268 6.839804,-15.153026 2.716151,-2.27167 5.255048,-3.581683 8.808907,-4.545197 1.59958,-0.433675 3.811161,-0.890736 4.710455,-0.973497 0.556751,-0.05124 0.717196,-0.170665 0.392022,-0.291804 -0.395605,-0.147376 -1.466065,-0.979699 -1.909397,-1.484627 -0.230326,-0.262328 -0.536859,-0.732169 -0.681185,-1.044091 -0.250983,-0.542431 -0.265606,-0.816826 -0.335732,-6.299771 -0.04864,-3.803216 -0.12178,-5.881826 -0.217301,-6.175901 -0.238316,-0.733686 -1.301356,-1.486285 -1.818864,-1.287697 -0.2135,0.08192 -0.374875,-0.152467 -0.185534,-0.269486 0.07656,-0.04731 1.661662,-0.08959 3.52247,-0.09396 2.960416,-0.007 3.387937,0.0162 3.420476,0.185161 0.02665,0.138378 -0.101918,0.215344 -0.453676,0.271592 -0.661074,0.10571 -1.197084,0.722214 -1.389925,1.598655 -0.102228,0.464613 -0.131916,2.130431 -0.09953,5.5847 0.04383,4.675159 0.05995,4.963854 0.320659,5.743487 0.314421,0.940253 0.685232,1.535567 1.188962,1.9088 0.485106,0.359435 1.986111,0.422952 3.291518,0.139284 1.329318,-0.288864 3.168494,-0.917242 3.416015,-1.167127 0.612201,-0.618045 0.898374,-3.915346 0.780442,-8.992272 -0.08632,-3.71592 -0.13948,-4.015315 -0.78018,-4.393786 -0.193644,-0.114389 -0.587948,-0.245697 -0.876231,-0.291795 -0.390104,-0.06238 -0.514307,-0.135275 -0.485655,-0.285035 0.03336,-0.174371 0.387512,-0.212367 2.654114,-0.284754 1.438588,-0.04594 2.713756,-0.05618 2.833705,-0.02275 0.379772,0.105832 0.236776,0.262124 -0.315615,0.344959 -0.738247,0.110708 -1.251643,0.455412 -1.525125,1.024001 -0.212009,0.440784 -0.233502,0.87676 -0.251079,5.093082 -0.01518,3.640459 -0.06265,4.871153 -0.225564,5.846813 -0.113489,0.679679 -0.189367,1.252755 -0.16862,1.273502 0.02074,0.02075 0.707756,-0.0026 1.526685,-0.05186 0.81893,-0.04928 2.180913,-0.06155 3.02663,-0.02728 1.059869,0.04295 1.573788,0.01863 1.653913,-0.0783 0.141557,-0.17122 0.131974,-9.21369 -0.0115,-10.850726 -0.12345,-1.408565 -0.374615,-1.841004 -1.197028,-2.060967 -0.302444,-0.08089 -0.549898,-0.213323 -0.549898,-0.294293 0,-0.206178 0.580823,-0.282587 2.263364,-0.297755 l 1.453319,-0.0131 0.865548,1.033774 c 0.476051,0.568577 1.311516,1.622616 1.856587,2.342312 1.902947,2.512585 2.72562,3.570711 4.860924,6.252129 1.970215,2.474107 2.383094,2.950816 2.44816,2.826641 0.01257,-0.024 -0.0052,-2.503344 -0.03945,-5.509656 l -0.06232,-5.466022 -0.436178,-0.367005 c -0.239891,-0.20185 -0.675242,-0.431795 -0.96744,-0.510985 -1.060725,-0.287472 -0.497606,-0.402291 2.141741,-0.436693 2.048005,-0.02669 2.575872,-7.35e-4 2.534132,0.124623 -0.029,0.08709 -0.160235,0.175003 -0.29164,0.19537 -0.542521,0.08408 -1.145544,0.44206 -1.370288,0.813455 -0.227703,0.376288 -0.242537,0.784737 -0.301786,8.309274 -0.04655,5.911557 -0.0991,7.913532 -0.207732,7.913532 -0.151678,0 -1.3202,-1.335412 -2.284714,-2.611019 -0.501245,-0.662916 -4.054032,-5.163248 -4.341403,-5.499277 -0.512102,-0.598808 -2.801816,-3.530798 -3.760276,-4.815048 -0.650476,-0.871582 -1.238763,-1.586667 -1.307305,-1.58908 -0.08224,-0.0029 -0.09839,1.532078 -0.04749,4.513322 0.04243,2.484741 0.08448,5.11081 0.09346,5.835711 l 0.01633,1.318001 0.83638,0.426716 c 1.025591,0.523247 1.506962,1.198923 1.617555,2.270478 0.135911,1.31685 -0.753364,3.032992 -1.880223,3.628498 -0.589107,0.311323 -0.689551,0.184439 -0.258325,-0.326318 1.3316,-1.577187 1.218669,-3.917933 -0.206175,-4.273436 -0.293357,-0.07319 -0.354745,-0.0242 -0.597186,0.476619 -0.815868,1.68536 -3.455499,2.950351 -6.156441,2.950351 -1.378728,0 -4.030934,-0.48359 -5.089421,-0.927979 -0.279642,-0.117403 -1.157526,1.312035 -2.598133,4.230473 -1.23273,2.49732 -2.073185,4.85253 -2.51264,7.04118 -0.241243,1.20148 -0.288019,1.82599 -0.289359,3.8633 -0.0017,2.61947 0.09982,3.21235 0.734075,4.28605 0.993889,1.68249 2.874034,2.34051 4.498463,1.57437 1.553758,-0.73279 3.22863,-2.26729 4.424246,-4.0534 0.367054,-0.54834 0.761246,-1.06445 0.87598,-1.14691 0.148094,-0.10644 0.229839,-0.41373 0.281798,-1.05929 0.2187,-2.71719 1.75897,-5.829 3.837903,-7.75374 2.20385,-2.04037 5.353015,-2.43547 7.949426,-0.99734 0.299938,0.16613 0.563844,0.30206 0.586459,0.30206 0.02261,0 0.270386,-0.39256 0.550601,-0.87236 0.280216,-0.4798 0.57711,-0.87857 0.659764,-0.88615 0.637523,-0.0585 1.617511,0.30395 2.006662,0.7422 0.234278,0.26384 0.228641,0.28313 -0.661777,2.26439 -1.544049,3.43566 -2.269156,5.60088 -2.686281,8.02146 -0.220272,1.27824 -0.247985,2.6036 -0.06172,2.95166 0.180984,0.33817 0.780422,0.30835 1.615706,-0.0804 2.083468,-0.96957 3.839361,-3.12542 5.453376,-6.69555 0.776449,-1.71746 1.683484,-4.34586 1.6268,-4.71411 -0.02765,-0.17962 -0.227546,-0.31962 -0.68611,-0.4805 -1.322796,-0.46413 -2.034891,-1.36387 -2.029548,-2.564382 0.0092,-2.081969 2.226372,-3.277532 3.464002,-1.867946 0.465313,0.529963 0.682557,1.473684 0.569428,2.473628 l -0.08357,0.7386 0.360368,-0.0695 c 0.198202,-0.0382 0.668808,-0.10619 1.04579,-0.15104 0.376982,-0.0449 1.20903,-0.18775 1.848994,-0.31756 1.958457,-0.39722 2.568259,-0.32543 2.870522,0.33797 0.166904,0.36631 0.02056,0.87187 -0.691029,2.38709 -1.867701,3.97708 -2.895547,6.96254 -2.991813,8.68994 -0.07578,1.35982 0.02639,1.55371 0.868765,1.64866 1.069716,0.12057 2.580086,-0.88821 3.783263,-2.52686 l 0.595091,-0.81046 0.02063,-1.52351 c 0.02605,-1.92443 0.329937,-3.201 1.165966,-4.89818 1.194645,-2.42516 3.592806,-4.486537 5.926797,-5.094465 0.921316,-0.239974 1.225356,-0.240287 2.027452,-0.0021 1.180041,0.350435 1.777091,1.089683 1.790556,2.217015 0.02515,2.10583 -1.680491,4.64171 -4.117982,6.1224 -0.976184,0.593 -1.830903,0.91779 -2.940493,1.11737 l -0.872357,0.1569 0.01594,0.87455 c 0.02868,1.57377 0.869903,2.88238 2.247428,3.49612 0.363387,0.16191 0.822702,0.21224 1.911482,0.20944 1.227854,-0.003 1.584902,-0.0536 2.492447,-0.35244 3.48672,-1.148 6.242271,-3.42357 8.728317,-7.20797 0.749409,-1.1408 2.139424,-1.63895 2.98618,-1.07019 0.761382,0.51144 1.238349,1.94712 0.921334,2.77325 -0.09162,0.23875 -0.298222,0.26149 -0.298222,0.0328 0,-0.5027 -0.441968,-1.54881 -0.809715,-1.91655 -0.721421,-0.72142 -1.382168,-0.46134 -2.278701,0.89695 -1.992647,3.01895 -4.370077,5.34121 -6.636629,6.48264 -1.147981,0.57811 -3.278726,1.27032 -4.641582,1.50791 -2.028205,0.35356 -3.944608,0.0419 -5.371875,-0.87383 -0.685897,-0.44003 -1.497724,-1.27184 -1.722261,-1.76465 -0.139625,-0.30644 -0.348143,-0.41363 -0.348143,-0.17896 0,0.24617 -0.91345,1.44337 -1.669479,2.18808 -1.063992,1.04806 -1.93912,1.45601 -3.273768,1.52606 -1.120199,0.0588 -1.833423,-0.11998 -2.467073,-0.61842 -1.563355,-1.22974 -1.002942,-4.91268 1.567601,-10.30204 0.473729,-0.9932 0.836384,-1.83077 0.805902,-1.86125 -0.03048,-0.0304 -0.550011,0.007 -1.154506,0.0824 -0.604495,0.0758 -1.257098,0.15134 -1.450228,0.1679 -0.336771,0.0289 -0.376608,0.10666 -0.97313,1.89947 -0.761236,2.28787 -2.412684,5.70885 -3.470068,7.18826 -1.475327,2.06416 -3.425029,3.80409 -4.883938,4.35842 -1.511745,0.57442 -3.096632,0.0308 -3.689196,-1.2653 -0.231791,-0.50702 -0.261174,-2.46137 -0.05049,-3.3581 0.186346,-0.79315 0.05777,-0.8526 -0.388092,-0.17946 -0.213339,0.32208 -0.86587,1.08788 -1.450067,1.70177 -2.183202,2.29418 -3.952444,3.05011 -5.446221,2.32699 -0.6496,-0.31446 -1.3641,-1.08516 -1.690838,-1.8238 l -0.244641,-0.55305 -0.405774,0.67386 c -1.169486,1.94213 -3.626514,3.85565 -5.766502,4.49094 -0.355003,0.10538 -1.093513,0.23069 -1.641134,0.27846 -2.629299,0.22935 -4.979056,-1.46551 -6.166994,-4.44824 -0.561439,-1.40969 -0.747658,-2.41125 -0.749655,-4.03197 -0.0021,-1.6974 0.331219,-3.3158 1.084693,-5.2668 1.186976,-3.07347 2.539198,-5.099824 5.086395,-7.622144 l 1.519798,-1.504955 -0.614668,9.94e-4 c -2.519766,0.0042 -6.463619,1.053873 -9.601047,2.555379 -1.73999,0.832722 -3.896309,2.291536 -4.947556,3.347156 -2.308723,2.31833 -4.295399,6.04415 -5.147694,9.654 -0.423909,1.79543 -0.54678,5.13428 -0.251314,6.8291 0.538508,3.08893 1.695687,5.37548 3.785456,7.47996 0.873538,0.87969 1.218581,1.12783 2.305513,1.65806 2.196868,1.07168 4.417038,1.46039 7.135482,1.24933 3.974748,-0.3086 6.299832,-1.12811 11.171406,-3.93757 3.413119,-1.96834 4.213991,-2.4118 5.709601,-3.16153 4.261935,-2.13645 8.980018,-3.51951 14.523816,-4.25751 2.795491,-0.37214 8.450371,-0.40537 11.714497,-0.0688 7.106219,0.73265 11.861072,1.81673 15.471755,3.52747 1.258295,0.59619 3.657771,2.14444 3.657771,2.36018 0,0.33805 -0.237375,0.28806 -1.012441,-0.21319 -1.591592,-1.02932 -3.74431,-2.01366 -5.545112,-2.5355 -2.690487,-0.77969 -4.609332,-1.13512 -8.418369,-1.55935 -5.816475,-0.6478 -10.515049,-0.44306 -16.179657,0.70502 -4.441033,0.90011 -7.39532,1.9802 -13.583832,4.96629 -7.15887,3.45432 -12.48894,5.40148 -16.35858,5.97607 -1.763203,0.26181 -4.442045,0.23784 -5.892027,-0.0527 z m 24.031932,-16.40916 c 1.914724,-0.99014 3.835738,-3.56507 6.018044,-8.06659 1.070576,-2.20832 1.074929,-2.27419 0.18873,-2.85598 -2.290322,-1.50361 -4.947145,-0.0619 -6.843064,3.7134 -2.016103,4.0146 -2.14091,7.41504 -0.272155,7.41504 0.280689,0 0.689489,-0.0927 0.908445,-0.20587 z m 29.561187,-6.55944 c 2.826111,-0.95976 4.76131,-3.10412 4.895494,-5.42461 0.07045,-1.21821 -0.135467,-1.55258 -0.949187,-1.54135 -1.53151,0.02113 -3.60993,1.98356 -4.691869,4.43002 -0.26091,0.58998 -0.93684,2.68432 -0.93684,2.90277 0,0.0942 0.907363,-0.10363 1.682402,-0.36683 z m -13.169382,-6.50803 c 0.07229,-0.886104 -0.09682,-1.569841 -0.484048,-1.957072 -0.29964,-0.29964 -0.401832,-0.337311 -0.611147,-0.22529 -0.314726,0.168437 -0.62779,0.760076 -0.62779,1.186418 0,0.511797 0.338312,1.034354 0.843461,1.302824 0.654286,0.34772 0.831154,0.28601 0.879524,-0.30688 z M 44.874728,95.743204 c 1.96837,-0.414489 3.313507,-1.793372 3.026085,-3.102001 -0.150637,-0.685849 -0.540467,-0.808393 -2.554475,-0.803005 -1.31148,0.0035 -2.029164,0.06434 -2.617068,0.221832 -0.96617,0.258822 -2.188017,0.812373 -2.834462,1.284139 -0.648427,0.473211 -1.776579,1.568153 -1.776497,1.724202 7.2e-5,0.136704 2.062161,0.647713 3.307606,0.819661 0.872577,0.120469 2.516841,0.05142 3.448811,-0.144828 z m 44.08942,-1.657227 c -1.354047,-0.369825 -1.863627,-0.594335 -2.885602,-1.271334 -1.561857,-1.034641 -2.632724,-2.472386 -3.250148,-4.36365 -0.374473,-1.147068 -0.402347,-3.957863 -0.05398,-5.443361 0.761024,-3.245156 3.30607,-5.781207 6.486129,-6.463209 0.816976,-0.175211 3.094605,-0.05927 3.787604,0.192806 1.377284,0.50098 2.606078,1.272728 3.591478,2.255642 0.798164,0.796149 1.560051,2.312256 2.005775,3.991368 0.721994,2.719861 0.324401,6.021015 -0.95539,7.932448 -1.837147,2.743874 -5.462454,4.060609 -8.725863,3.16929 z m 3.863584,-1.087195 c 1.392164,-0.637995 2.357915,-2.007018 2.879141,-4.081397 0.232671,-0.925982 0.256391,-1.304117 0.20717,-3.302497 -0.06317,-2.564658 -0.257801,-3.632692 -0.910892,-4.998478 -1.012994,-2.118439 -2.817949,-3.223066 -4.886643,-2.990613 -2.107102,0.23677 -3.733444,1.909824 -4.404017,4.530509 -0.487883,1.906712 -0.426783,5.06254 0.130908,6.761353 0.687945,2.095587 2.164617,3.76634 3.806172,4.306419 0.795357,0.261676 2.357127,0.150964 3.178161,-0.225296 z M 3.0038766,93.863646 c 0.024741,-0.07422 0.3258952,-0.225126 0.6692321,-0.335341 0.7269563,-0.233364 1.0469549,-0.44845 1.3406592,-0.901119 0.1795776,-0.276773 0.2334957,-0.926045 0.3518712,-4.237168 0.076889,-2.15067 0.1452132,-5.228192 0.1518331,-6.838939 0.010722,-2.608807 -0.012684,-2.973933 -0.2143301,-3.343471 -0.2413956,-0.442383 -0.8411022,-0.76779 -1.4208768,-0.770981 -0.4476051,-0.0025 -0.6724448,-0.14738 -0.5460255,-0.351932 0.072519,-0.117338 0.7140018,-0.177358 2.3924012,-0.223847 3.0109532,-0.0834 2.7995284,-0.215261 3.8462357,2.398885 0.6923233,1.729074 1.4458243,3.536873 3.3704163,8.086295 0.650131,1.536806 1.257741,2.834015 1.303818,2.783571 0.08707,-0.09531 1.500644,-3.253013 1.999248,-4.465976 0.29584,-0.719694 0.830245,-2.009538 1.187567,-2.866318 0.357321,-0.85678 0.997298,-2.416116 1.42217,-3.465192 0.424873,-1.049075 0.863018,-2.013133 0.973658,-2.14235 0.185539,-0.216695 0.387241,-0.233095 2.597219,-0.211173 2.46257,0.02442 3.001483,0.143966 1.93498,0.429213 -0.752776,0.201336 -1.289947,0.685261 -1.462145,1.31721 -0.179174,0.657553 -0.06875,11.204767 0.130559,12.470921 0.177599,1.128211 0.537222,1.753424 1.190466,2.069654 0.283191,0.137091 0.623367,0.250116 0.755947,0.251165 0.272953,0.0022 0.639954,0.201533 0.54527,0.296217 -0.03434,0.03434 -1.743155,0.07189 -3.797372,0.08346 -3.22521,0.01816 -3.740041,-0.0044 -3.772327,-0.165194 -0.02697,-0.134357 0.120374,-0.209882 0.529053,-0.271167 0.63191,-0.09476 1.209283,-0.512543 1.537925,-1.112829 0.193525,-0.353487 0.210329,-0.864808 0.178693,-5.437392 -0.0192,-2.775968 -0.079,-5.411735 -0.132879,-5.857261 l -0.09796,-0.810048 -0.739774,1.49547 c -0.406875,0.82251 -0.846571,1.747832 -0.977099,2.056272 -0.130528,0.308442 -0.725215,1.626325 -1.321528,2.92863 -0.596311,1.302307 -1.376665,3.040791 -1.734117,3.8633 -1.314606,3.024952 -1.466777,3.302497 -1.810674,3.302497 -0.251162,0 -0.376534,-0.126099 -0.637616,-0.641323 C 12.300625,92.363796 10.600612,88.625213 9.5662613,86.249444 9.0947855,85.166527 8.5436407,83.932764 8.341495,83.507749 8.1393493,83.082733 7.7299507,82.17805 7.4317204,81.497341 7.1334902,80.816634 6.8302438,80.239943 6.7578397,80.215808 6.5980202,80.162534 6.4015023,89.587459 6.5294182,91.170812 c 0.1357923,1.680846 0.69102,2.468656 1.7398447,2.468656 0.2120212,0 0.3152736,0.05696 0.2823385,0.155778 -0.039139,0.117422 -0.7340576,0.161635 -2.8223159,0.179564 -1.9425142,0.01668 -2.7569497,-0.01654 -2.7254089,-0.111164 z m 64.2759884,-0.09956 c -1.809053,-0.05168 -2.18089,-0.09359 -2.18089,-0.245797 0,-0.119924 0.192325,-0.216316 0.555203,-0.278264 1.035888,-0.176839 1.053802,-0.228656 1.144833,-3.311318 0.04398,-1.489017 0.0848,-4.58599 0.09073,-6.882161 0.0099,-3.848675 -0.0078,-4.215591 -0.225932,-4.696237 -0.247662,-0.545496 -0.759803,-0.907939 -1.346685,-0.953048 -0.415861,-0.03196 -0.500493,-0.278035 -0.129778,-0.37734 0.406626,-0.108925 4.700659,-0.0853 6.765856,0.03722 2.018635,0.119762 2.996075,0.342416 4.29947,0.979387 1.164564,0.569124 2.630169,1.976964 3.205595,3.07925 0.909554,1.742346 1.263984,4.342172 0.851011,6.242356 -0.268368,1.234824 -1.008686,2.799731 -1.691404,3.57534 -0.58925,0.669425 -1.774779,1.540981 -2.614447,1.922045 -1.292299,0.586478 -4.156079,1.075918 -5.857249,1.001042 -0.376982,-0.01659 -1.666823,-0.05821 -2.866313,-0.09248 z m 6.110493,-1.12295 c 1.348358,-0.45423 2.313107,-1.264005 3.145769,-2.640441 0.793125,-1.31108 0.901541,-1.845414 0.892631,-4.399386 -0.0071,-2.029455 -0.03765,-2.340125 -0.320817,-3.260316 -0.402389,-1.307619 -1.001417,-2.296205 -1.814419,-2.994368 -0.915234,-0.785955 -1.667808,-1.036275 -3.589565,-1.193957 -1.900763,-0.155959 -2.494222,-0.08364 -2.601635,0.31707 -0.0971,0.362225 -0.07777,8.689129 0.02736,11.783897 0.101386,2.984725 -0.02405,2.816469 2.027814,2.720076 0.993841,-0.04669 1.693632,-0.15092 2.232867,-0.332575 z"
       id="path1" /></g></svg>
